<svg xmlns="http://www.w3.org/2000/svg" width="19.28" height="23.109" viewBox="0 0 19.28 23.109">
  <g id="user" transform="translate(0)">
    <path id="Tracé_3" data-name="Tracé 3" d="M92.6,11.132A5.386,5.386,0,0,0,96.533,9.5a5.385,5.385,0,0,0,1.63-3.935,5.386,5.386,0,0,0-1.631-3.935,5.565,5.565,0,0,0-7.871,0,5.386,5.386,0,0,0-1.631,3.935A5.385,5.385,0,0,0,88.663,9.5,5.387,5.387,0,0,0,92.6,11.132Zm0,0" transform="translate(-83.104 0)" fill="#b8b8b8"/>
    <path id="Tracé_4" data-name="Tracé 4" d="M19.233,253.923a13.747,13.747,0,0,0-.187-1.46A11.5,11.5,0,0,0,18.687,251a7.253,7.253,0,0,0-.6-1.369,5.167,5.167,0,0,0-.91-1.186,4.012,4.012,0,0,0-1.307-.821,4.519,4.519,0,0,0-1.669-.3,1.694,1.694,0,0,0-.9.384c-.271.177-.588.381-.942.608a5.4,5.4,0,0,1-1.219.537,4.735,4.735,0,0,1-2.983,0,5.388,5.388,0,0,1-1.218-.537c-.351-.224-.668-.429-.943-.608a1.692,1.692,0,0,0-.9-.384,4.511,4.511,0,0,0-1.669.3,4.01,4.01,0,0,0-1.307.821,5.167,5.167,0,0,0-.91,1.186A7.265,7.265,0,0,0,.592,251a11.531,11.531,0,0,0-.359,1.468,13.7,13.7,0,0,0-.187,1.461c-.031.442-.046.9-.046,1.365a3.837,3.837,0,0,0,1.14,2.9,4.1,4.1,0,0,0,2.937,1.071H15.2a4.1,4.1,0,0,0,2.937-1.071,3.835,3.835,0,0,0,1.14-2.9c0-.466-.016-.925-.047-1.365Zm0,0" transform="translate(0 -236.154)" fill="#b8b8b8"/>
  </g>
</svg>
